<?xml version="1.0" standalone="no"?>
<!DOCTYPE svg PUBLIC "-//W3C//DTD SVG 20010904//EN"
 "http://www.w3.org/TR/2001/REC-SVG-20010904/DTD/svg10.dtd">
<svg version="1.0" xmlns="http://www.w3.org/2000/svg"
 width="375.000000pt" height="375.000000pt" viewBox="0 0 375.000000 375.000000"
 preserveAspectRatio="xMidYMid meet">

<g transform="translate(0.000000,375.000000) scale(0.100000,-0.100000)"
fill="#000000" stroke="none">
<path d="M2042 3324 c-32 -19 -47 -23 -55 -15 -20 20 -74 12 -107 -15 -23 -20
-38 -25 -59 -21 -25 5 -28 3 -24 -13 3 -12 -3 -22 -16 -29 -12 -7 -21 -17 -21
-24 0 -15 -38 -40 -49 -33 -5 3 -16 -3 -25 -13 -9 -9 -37 -28 -64 -40 -26 -13
-62 -41 -80 -64 -31 -38 -33 -46 -28 -88 5 -35 1 -62 -15 -104 -11 -31 -18
-59 -15 -62 3 -4 1 -12 -6 -20 -6 -7 -8 -16 -5 -19 3 -3 0 -23 -8 -43 -19 -53
-45 -326 -35 -366 1 -5 2 -23 1 -40 -1 -22 -4 -26 -13 -17 -18 18 -67 15 -75
-4 -9 -24 25 -211 53 -289 31 -87 46 -111 84 -130 17 -9 30 -23 30 -33 0 -9
-23 -44 -51 -76 -27 -32 -62 -82 -76 -110 -14 -28 -58 -83 -97 -122 -40 -39
-78 -86 -85 -105 -7 -19 -17 -42 -22 -51 -14 -28 -11 -37 26 -75 19 -20 35
-40 35 -45 0 -14 -16 -9 -35 12 -18 20 -45 27 -45 12 0 -5 11 -19 25 -32 31
-29 23 -39 -41 -49 l-49 -9 40 -1 c22 0 54 3 71 8 31 9 32 8 38 -33 4 -22 17
-57 29 -76 12 -19 34 -60 47 -90 14 -30 37 -67 51 -82 24 -24 55 -107 51 -134
-3 -13 26 -40 66 -62 17 -9 60 -44 96 -76 55 -50 66 -64 66 -91 0 -47 -33 -65
-115 -65 -62 0 -65 -1 -65 -24 0 -13 7 -29 15 -36 8 -7 15 -18 15 -25 0 -8 13
-26 28 -42 44 -43 53 -66 42 -103 -5 -18 -17 -38 -27 -46 -25 -19 -134 -18
-159 1 -10 8 -24 15 -31 15 -17 0 -172 159 -191 196 -10 17 -30 57 -46 90 -39
77 -62 108 -69 91 -3 -8 6 -65 19 -128 13 -63 24 -124 24 -136 0 -13 4 -23 9
-23 5 0 12 -22 16 -49 4 -26 13 -61 21 -76 8 -15 14 -39 14 -53 0 -14 5 -52
12 -84 l12 -58 243 0 c217 0 244 2 250 16 6 16 7 15 19 0 10 -14 26 -16 95
-14 l84 3 -23 21 c-14 13 -24 37 -27 65 -3 24 -9 53 -14 64 -5 11 -12 33 -16
48 -3 17 -15 31 -29 37 -13 5 -26 15 -29 22 -3 7 -6 -12 -6 -42 -1 -61 -17
-169 -26 -179 -11 -10 -24 23 -19 46 4 13 8 78 9 145 7 257 29 622 44 741 12
86 16 97 35 97 15 0 146 -97 146 -108 -1 -4 -15 -16 -32 -27 -51 -32 -46 -42
32 -55 43 -7 74 -18 77 -26 6 -17 50 -19 56 -1 2 6 7 10 10 7 7 -7 29 -621 22
-629 -4 -3 -12 -6 -18 -6 -7 0 -16 -28 -22 -65 -10 -64 -11 -65 -50 -76 -40
-11 -41 -13 -37 -64 2 -20 9 -20 612 -20 343 0 610 4 610 9 0 26 -31 33 -105
24 l-75 -9 -2 55 c-1 31 -2 114 -3 186 -1 128 -9 195 -24 195 -4 0 -16 -8 -27
-19 -20 -18 -21 -18 -43 25 -29 53 -122 144 -179 173 -98 50 -237 65 -330 35
-75 -25 -142 -80 -176 -147 -24 -47 -30 -72 -32 -139 -2 -46 -6 -98 -9 -117
-9 -48 -36 -112 -45 -106 -10 6 -23 217 -21 350 1 65 -4 143 -13 189 -13 64
-14 93 -5 150 14 89 24 116 44 116 13 0 15 -7 9 -36 -6 -34 -5 -35 14 -25 11
6 36 10 56 9 25 -1 42 5 56 19 36 40 3 46 -240 43 l-55 0 40 25 c22 14 54 30
72 37 17 6 34 20 37 31 2 10 9 16 15 12 6 -3 11 1 11 10 0 11 5 15 16 11 8 -3
12 -2 9 4 -3 5 12 14 35 20 46 12 55 26 65 95 4 28 23 97 41 154 19 57 34 108
34 113 0 9 56 92 81 121 4 5 19 1 33 -8 24 -16 26 -23 27 -89 0 -58 2 -67 11
-46 12 29 4 141 -13 171 -10 19 -17 21 -59 16 -63 -8 -78 5 -82 68 l-3 50 -78
39 c-60 30 -76 43 -71 55 17 42 10 50 -62 71 -60 18 -68 25 -66 62 0 18 3 77
5 130 3 88 14 128 36 128 11 0 41 -68 41 -91 0 -11 4 -18 9 -15 5 3 14 -8 20
-24 13 -38 25 -39 17 -2 l-7 27 24 -26 c39 -41 129 -83 160 -75 20 5 27 13 27
30 0 22 27 56 46 56 15 0 64 95 64 124 0 14 5 26 11 26 7 0 9 -32 7 -95 -3
-96 3 -108 20 -45 l10 35 2 -45 2 -45 9 40 c14 68 11 125 -6 125 -8 0 -15 7
-15 15 0 18 17 20 23 3 2 -7 8 -10 12 -6 4 4 5 14 1 23 -4 11 -10 13 -22 7
-10 -6 -28 -3 -52 9 -20 10 -73 22 -117 27 l-80 8 61 8 c52 6 69 4 109 -14 26
-12 49 -19 52 -16 3 3 -1 8 -10 12 -9 3 -14 11 -11 17 9 25 -96 51 -224 55
l-122 4 -29 -31 c-35 -38 -41 -38 -41 -6 0 14 -6 25 -13 25 -8 0 -22 9 -32 20
-10 11 -37 25 -59 32 -51 14 -66 25 -66 49 0 11 -4 19 -10 19 -20 0 -9 31 15
42 14 6 24 16 22 22 -3 6 -1 18 4 27 13 25 -1 57 -27 63 -17 5 -24 13 -24 30
0 13 -7 29 -14 36 -8 6 -20 27 -26 46 -10 28 -9 39 4 58 17 27 49 35 181 46
50 4 106 12 125 17 44 12 144 -7 209 -39 55 -28 100 -91 132 -185 18 -53 25
-98 29 -208 l5 -140 9 122 c8 123 5 155 -30 279 -18 65 -18 93 1 100 31 12 12
154 -21 154 -7 0 -14 5 -16 10 -6 18 4 100 11 95 5 -2 14 6 21 19 10 20 9 28
-4 48 -15 23 -28 32 -86 56 -18 8 -20 11 -7 11 9 1 17 6 17 12 0 6 -7 8 -16 5
-8 -3 -25 1 -38 9 -12 8 -26 12 -31 8 -4 -5 -5 -2 0 6 12 22 -13 29 -78 23
-40 -3 -58 -2 -54 5 9 14 -74 53 -110 53 -16 0 -48 -12 -71 -26z m-204 -961
c-21 -2 -55 -2 -75 0 -21 2 -4 4 37 4 41 0 58 -2 38 -4z m277 -33 c3 -5 -1
-10 -10 -10 -9 0 -13 5 -10 10 3 6 8 10 10 10 2 0 7 -4 10 -10z m10 -40 c3 -5
-3 -10 -14 -10 -12 0 -21 5 -21 10 0 6 6 10 14 10 8 0 18 -4 21 -10z m35 -75
c0 -8 -4 -15 -10 -15 -5 0 -10 7 -10 15 0 8 5 15 10 15 6 0 10 -7 10 -15z
m-190 -139 c0 -2 -8 -10 -17 -17 -16 -13 -17 -12 -4 4 13 16 21 21 21 13z
m-65 -1038 c15 -27 24 -48 22 -48 -4 0 -75 114 -84 135 -11 25 39 -45 62 -87z"/>
<path d="M2150 2130 c0 -8 9 -35 20 -59 11 -24 20 -56 20 -71 0 -15 6 -40 14
-54 13 -25 15 -26 30 -11 9 9 16 23 16 31 0 8 7 17 15 20 21 8 19 24 -3 24
-31 0 -63 31 -88 84 -13 28 -24 44 -24 36z"/>
<path d="M2489 2073 c-13 -16 -12 -17 4 -4 9 7 17 15 17 17 0 8 -8 3 -21 -13z"/>
<path d="M2455 1880 c-4 -6 0 -10 7 -10 7 0 2 -7 -10 -16 -44 -31 -63 -104
-27 -104 14 0 25 22 25 51 0 10 7 19 15 19 8 0 15 3 15 8 0 4 3 17 6 28 6 22
-20 42 -31 24z"/>
<path d="M2467 1411 c-4 -17 -3 -21 5 -13 5 5 8 16 6 23 -3 8 -7 3 -11 -10z"/>
<path d="M2590 1179 c-37 -32 -49 -48 -37 -49 9 0 17 -5 17 -11 0 -19 29 11
57 58 14 24 24 46 22 48 -2 2 -29 -19 -59 -46z"/>
<path d="M1060 1180 c-8 -5 -10 -10 -5 -10 6 0 17 5 25 10 8 5 11 10 5 10 -5
0 -17 -5 -25 -10z"/>
<path d="M2419 1053 c-13 -16 -12 -17 4 -4 16 13 21 21 13 21 -2 0 -10 -8 -17
-17z"/>
<path d="M644 888 c2 -30 26 -111 32 -106 6 7 -15 111 -25 121 -4 4 -7 -2 -7
-15z"/>
<path d="M436 852 c-44 -46 -55 -91 -33 -143 l13 -34 15 29 c16 33 39 46 39
22 0 -18 17 -51 42 -81 9 -11 41 -69 72 -130 54 -107 78 -175 60 -175 -5 0
-45 32 -89 71 -44 39 -92 77 -107 85 -15 8 -31 20 -35 26 -4 7 -18 22 -31 33
-21 17 -20 14 8 -40 17 -33 46 -76 64 -95 18 -19 46 -52 61 -73 15 -21 49 -50
74 -64 87 -50 109 -83 55 -83 -13 0 -24 -2 -24 -5 0 -12 44 -91 67 -122 16
-20 20 -34 13 -38 -11 -7 -48 18 -115 79 -22 20 -49 44 -61 55 -40 35 -163 65
-203 49 -15 -6 -70 -14 -124 -17 -89 -5 -119 -17 -85 -32 7 -3 23 -11 36 -18
13 -7 75 -16 138 -21 126 -11 183 -32 258 -96 l40 -34 158 0 c87 0 158 2 158
4 0 4 -27 72 -40 101 -5 11 -21 49 -36 85 -14 36 -30 70 -34 75 -4 6 -13 35
-20 65 -7 30 -23 67 -37 81 -13 14 -28 39 -33 55 l-8 29 -2 -30 c-2 -34 3 -41
-46 80 -16 39 -38 84 -50 102 -19 29 -87 165 -110 221 -9 23 -10 22 -48 -16z"/>
<path d="M1752 868 c-8 -8 -12 -54 -12 -141 l0 -129 26 19 c17 12 35 44 50 88
28 81 30 101 7 109 -12 5 -14 9 -5 18 16 16 15 28 -3 28 -8 0 -15 5 -15 10 0
14 -33 13 -48 -2z"/>
<path d="M245 478 c7 -78 -6 -112 -60 -154 -19 -14 -33 -30 -30 -34 2 -4 46
-7 97 -6 l93 1 3 29 c2 18 -4 40 -18 59 -12 16 -38 61 -57 101 l-34 71 6 -67z"/>
<path d="M1721 343 c1 -47 1 -48 9 -13 5 19 13 36 19 38 19 6 12 22 -9 22 -17
0 -20 -6 -19 -47z"/>
<path d="M3083 280 c-48 -29 -60 -56 -68 -148 -8 -93 -7 -94 67 -65 104 41
149 93 114 132 -9 10 -12 27 -9 44 11 55 -43 75 -104 37z m77 -76 c0 -12 -34
-33 -52 -34 -25 0 -22 19 5 30 27 11 47 12 47 4z"/>
<path d="M3331 51 c-10 -6 -10 -10 -1 -16 14 -9 60 2 60 15 0 12 -40 13 -59 1z"/>
</g>
</svg>
